<svg width="482" height="451" viewBox="0 0 482 451" fill="none" xmlns="http://www.w3.org/2000/svg">
<rect width="482" height="451" fill="black"/>
<path d="M363.545 252.574L402.091 226.087L363.545 199.574L325 226.087L363.545 252.574Z" fill="white" fill-opacity="0.4"/>
<path d="M413.545 218.574L452.091 192.087L413.545 165.574L375 192.087L413.545 218.574Z" fill="white" fill-opacity="0.4"/>
<path d="M162.545 320.574L201.091 294.087L162.545 267.574L124 294.087L162.545 320.574Z" fill="white" fill-opacity="0.4"/>
<path d="M112.545 354.574L151.091 328.087L112.545 301.574L74 328.087L112.545 354.574Z" fill="white" fill-opacity="0.4"/>
<path d="M413.545 286.574L452.091 260.087L413.545 233.574L375 260.087L413.545 286.574Z" fill="white" fill-opacity="0.4"/>
<path d="M112.545 422.574L151.091 396.087L112.545 369.574L74 396.087L112.545 422.574Z" fill="white" fill-opacity="0.4"/>
<path d="M313.545 354.574L352.091 328.087L313.545 301.574L275 328.087L313.545 354.574Z" fill="white" fill-opacity="0.4"/>
<path fill-rule="evenodd" clip-rule="evenodd" d="M315.31 259.093L211.83 326.08L296.549 381.738L295.451 383.409L208.169 326.067L311.69 259.054L160.438 156.401L161.561 154.746L315.31 259.093Z" fill="#75FB7A"/>
<path d="M213.545 218.574L252.091 192.087L213.545 165.574L175 192.087L213.545 218.574Z" fill="black"/>
<path d="M263.545 252.574L302.091 226.087L263.545 199.574L225 226.087L263.545 252.574Z" fill="black"/>
<path d="M313.545 286.574L352.091 260.087L313.545 233.574L275 260.087L313.545 286.574Z" fill="black"/>
<path d="M263.545 320.574L302.091 294.087L263.545 267.574L225 294.087L263.545 320.574Z" fill="black"/>
<path d="M213.545 354.574L252.091 328.087L213.545 301.574L175 328.087L213.545 354.574Z" fill="black"/>
<path d="M263.545 388.574L302.091 362.087L263.545 335.574L225 362.087L263.545 388.574Z" fill="black"/>
<path d="M313.545 422.574L352.091 396.087L313.545 369.574L275 396.087L313.545 422.574Z" fill="black"/>
<path d="M213.545 218.574L252.091 192.087L213.545 165.574L175 192.087L213.545 218.574Z" fill="url(#paint0_linear_1287_42)"/>
<path fill-rule="evenodd" clip-rule="evenodd" d="M213.545 216.147L178.53 192.086L213.545 168.001L248.561 192.086L213.545 216.147ZM213.545 218.574L175 192.087L213.545 165.574L252.091 192.087L213.545 218.574Z" fill="#75FB7A"/>
<path d="M263.545 252.574L302.091 226.087L263.545 199.574L225 226.087L263.545 252.574Z" fill="url(#paint1_linear_1287_42)"/>
<path fill-rule="evenodd" clip-rule="evenodd" d="M263.545 250.147L228.53 226.086L263.545 202.001L298.561 226.086L263.545 250.147ZM263.545 252.574L225 226.087L263.545 199.574L302.091 226.087L263.545 252.574Z" fill="#75FB7A"/>
<path d="M313.545 286.574L352.091 260.087L313.545 233.574L275 260.087L313.545 286.574Z" fill="url(#paint2_linear_1287_42)"/>
<path fill-rule="evenodd" clip-rule="evenodd" d="M313.545 284.147L278.53 260.086L313.545 236.001L348.561 260.086L313.545 284.147ZM313.545 286.574L275 260.087L313.545 233.574L352.091 260.087L313.545 286.574Z" fill="#75FB7A"/>
<path d="M263.545 320.574L302.091 294.087L263.545 267.574L225 294.087L263.545 320.574Z" fill="url(#paint3_linear_1287_42)"/>
<path fill-rule="evenodd" clip-rule="evenodd" d="M263.545 318.147L228.53 294.086L263.545 270.001L298.561 294.086L263.545 318.147ZM263.545 320.574L225 294.087L263.545 267.574L302.091 294.087L263.545 320.574Z" fill="#75FB7A"/>
<path d="M213.545 354.574L252.091 328.087L213.545 301.574L175 328.087L213.545 354.574Z" fill="url(#paint4_linear_1287_42)"/>
<path fill-rule="evenodd" clip-rule="evenodd" d="M213.545 352.147L178.53 328.086L213.545 304.001L248.561 328.086L213.545 352.147ZM213.545 354.574L175 328.087L213.545 301.574L252.091 328.087L213.545 354.574Z" fill="#75FB7A"/>
<path d="M263.545 388.574L302.091 362.087L263.545 335.574L225 362.087L263.545 388.574Z" fill="url(#paint5_linear_1287_42)"/>
<path fill-rule="evenodd" clip-rule="evenodd" d="M263.545 386.147L228.53 362.086L263.545 338.001L298.561 362.086L263.545 386.147ZM263.545 388.574L225 362.087L263.545 335.574L302.091 362.087L263.545 388.574Z" fill="#75FB7A"/>
<path d="M313.545 422.574L352.091 396.087L313.545 369.574L275 396.087L313.545 422.574Z" fill="url(#paint6_linear_1287_42)"/>
<path fill-rule="evenodd" clip-rule="evenodd" d="M313.545 420.147L278.53 396.086L313.545 372.001L348.561 396.086L313.545 420.147ZM313.545 422.574L275 396.087L313.545 369.574L352.091 396.087L313.545 422.574Z" fill="#75FB7A"/>
<path d="M162.545 388.574L201.091 362.087L162.545 335.574L124 362.087L162.545 388.574Z" fill="white" fill-opacity="0.4"/>
<path d="M62.5455 320.574L101.091 294.087L62.5455 267.574L24 294.087L62.5455 320.574Z" fill="white" fill-opacity="0.4"/>
<g clip-path="url(#clip0_1287_42)">
<path d="M115.069 326.55C115.032 326.542 114.993 326.539 114.955 326.541C114.888 326.545 114.823 326.561 114.763 326.591C114.647 326.647 114.557 326.745 114.512 326.866C114.467 326.987 114.47 327.12 114.521 327.239L114.518 327.244L115.663 330.011C116.759 329.312 117.591 328.267 118.026 327.042L115.075 326.544L115.069 326.55ZM110.477 326.942C110.452 326.833 110.391 326.735 110.304 326.665C110.217 326.594 110.109 326.555 109.997 326.553C109.964 326.553 109.931 326.556 109.899 326.562L109.894 326.556L106.968 327.053C107.407 328.268 108.235 329.304 109.324 330L110.458 327.26L110.449 327.25C110.491 327.153 110.5 327.045 110.477 326.942ZM112.927 328.016C112.884 327.937 112.821 327.87 112.743 327.824C112.666 327.777 112.577 327.753 112.487 327.753C112.396 327.753 112.307 327.778 112.23 327.824C112.152 327.871 112.089 327.938 112.046 328.018H112.044L110.605 330.62C111.635 330.97 112.743 331.027 113.804 330.784C114.001 330.739 114.193 330.686 114.38 330.623L112.938 328.016L112.927 328.016ZM117.482 321.972L115.269 323.954L115.27 323.96C115.202 324.02 115.151 324.096 115.123 324.182C115.095 324.268 115.091 324.36 115.111 324.448C115.131 324.536 115.175 324.617 115.237 324.682C115.3 324.748 115.379 324.795 115.466 324.819L115.469 324.831L118.336 325.657C118.46 324.369 118.16 323.075 117.482 321.972V321.972ZM113.369 322.194C113.373 322.284 113.402 322.372 113.452 322.447C113.502 322.523 113.571 322.583 113.652 322.622C113.734 322.661 113.824 322.678 113.914 322.669C114.004 322.661 114.09 322.629 114.163 322.576L114.172 322.579L116.595 320.862C115.673 319.958 114.479 319.383 113.198 319.224L113.367 322.193L113.369 322.194ZM110.804 322.587C110.877 322.64 110.963 322.672 111.053 322.68C111.143 322.688 111.233 322.672 111.315 322.632C111.396 322.593 111.465 322.532 111.515 322.457C111.565 322.382 111.593 322.294 111.597 322.204L111.609 322.198L111.777 319.224C111.574 319.249 111.372 319.283 111.173 319.328C110.111 319.567 109.137 320.098 108.361 320.861L110.799 322.589L110.804 322.587ZM109.504 324.834C109.591 324.81 109.67 324.763 109.733 324.697C109.796 324.632 109.839 324.551 109.859 324.463C109.88 324.375 109.875 324.283 109.847 324.197C109.819 324.111 109.768 324.034 109.7 323.974L109.703 323.963L107.476 321.971C106.797 323.077 106.506 324.377 106.648 325.667L109.502 324.843L109.504 324.834ZM111.666 325.708L112.487 326.103L113.306 325.709L113.509 324.825L112.943 324.116H112.031L111.462 324.824L111.666 325.708Z" fill="#326CE5"/>
<path d="M126.064 327.45L123.724 317.285C123.661 317.022 123.54 316.777 123.371 316.566C123.201 316.355 122.987 316.185 122.744 316.067L113.272 311.544C113.026 311.427 112.758 311.366 112.486 311.366C112.214 311.366 111.945 311.427 111.7 311.544L102.229 316.069C101.986 316.187 101.772 316.357 101.602 316.568C101.433 316.779 101.312 317.025 101.249 317.288L98.913 327.452C98.8554 327.709 98.8552 327.975 98.9124 328.232C98.9293 328.311 98.9513 328.388 98.9784 328.463C99.0241 328.592 99.0847 328.715 99.1588 328.829C99.1909 328.878 99.2247 328.926 99.2615 328.972L105.817 337.122C105.845 337.158 105.877 337.19 105.908 337.223C106.011 337.333 106.127 337.429 106.254 337.51C106.414 337.61 106.589 337.686 106.772 337.735C106.922 337.776 107.077 337.797 107.233 337.798H107.335L117.745 337.796C117.808 337.796 117.871 337.792 117.934 337.785C118.025 337.775 118.114 337.758 118.201 337.734C118.264 337.717 118.326 337.698 118.387 337.675C118.434 337.656 118.482 337.638 118.527 337.616C118.596 337.584 118.662 337.547 118.726 337.506C118.891 337.402 119.038 337.272 119.161 337.121L119.361 336.873L125.714 328.969C125.836 328.817 125.931 328.645 125.997 328.461C126.024 328.385 126.047 328.308 126.064 328.229C126.122 327.972 126.121 327.706 126.064 327.449L126.064 327.45ZM116.239 331.403C116.265 331.481 116.297 331.558 116.333 331.632C116.275 331.733 116.259 331.853 116.289 331.966C116.427 332.282 116.595 332.583 116.792 332.866C116.902 333.011 117.003 333.162 117.096 333.318C117.119 333.36 117.148 333.426 117.17 333.471C117.211 333.539 117.237 333.615 117.247 333.694C117.256 333.773 117.249 333.853 117.226 333.929C117.203 334.005 117.164 334.075 117.112 334.135C117.061 334.195 116.997 334.244 116.925 334.278C116.853 334.312 116.775 334.331 116.695 334.332C116.616 334.334 116.537 334.32 116.463 334.289C116.39 334.259 116.324 334.213 116.269 334.156C116.214 334.098 116.172 334.03 116.145 333.955C116.124 333.911 116.094 333.852 116.075 333.81C116.01 333.64 115.955 333.466 115.911 333.29C115.812 332.961 115.682 332.641 115.522 332.337C115.452 332.243 115.348 332.18 115.232 332.161C115.214 332.13 115.147 332.007 115.111 331.943C113.425 332.582 111.562 332.577 109.88 331.93L109.751 332.162C109.66 332.177 109.575 332.218 109.507 332.282C109.314 332.599 109.166 332.942 109.068 333.3C109.024 333.476 108.969 333.65 108.904 333.82C108.886 333.861 108.856 333.919 108.834 333.964V333.965L108.833 333.966C108.807 334.041 108.764 334.109 108.71 334.167C108.655 334.225 108.588 334.27 108.515 334.3C108.441 334.331 108.362 334.346 108.283 334.344C108.203 334.342 108.125 334.323 108.053 334.289C107.981 334.255 107.917 334.206 107.866 334.146C107.814 334.085 107.775 334.015 107.752 333.938C107.729 333.862 107.723 333.782 107.732 333.703C107.742 333.624 107.769 333.548 107.81 333.48C107.831 333.435 107.86 333.37 107.882 333.328C107.975 333.171 108.076 333.02 108.186 332.875C108.386 332.584 108.558 332.276 108.699 331.952C108.714 331.843 108.697 331.731 108.649 331.632L108.752 331.385C107.201 330.469 106.038 329.017 105.483 327.303L105.236 327.345C105.14 327.277 105.027 327.237 104.91 327.23C104.572 327.295 104.241 327.392 103.922 327.521C103.756 327.596 103.586 327.661 103.413 327.716C103.372 327.727 103.313 327.739 103.266 327.749C103.263 327.75 103.259 327.752 103.256 327.753C103.253 327.753 103.25 327.753 103.247 327.753C103.172 327.778 103.092 327.787 103.013 327.779C102.934 327.771 102.858 327.747 102.789 327.708C102.72 327.669 102.66 327.616 102.613 327.553C102.565 327.489 102.532 327.417 102.514 327.339C102.497 327.262 102.495 327.182 102.511 327.104C102.526 327.027 102.557 326.953 102.602 326.888C102.647 326.823 102.706 326.768 102.773 326.727C102.841 326.686 102.917 326.659 102.995 326.649L103.003 326.647L103.008 326.645C103.056 326.634 103.116 326.619 103.16 326.61C103.34 326.585 103.522 326.571 103.704 326.566C104.047 326.544 104.387 326.488 104.72 326.4C104.818 326.337 104.901 326.253 104.963 326.154L105.201 326.085C104.943 324.296 105.355 322.475 106.358 320.971L106.176 320.809C106.169 320.691 106.13 320.578 106.062 320.481C105.801 320.257 105.518 320.059 105.219 319.889C105.057 319.807 104.9 319.715 104.749 319.614C104.714 319.589 104.669 319.55 104.631 319.52L104.623 319.514C104.494 319.421 104.407 319.281 104.381 319.125C104.355 318.968 104.392 318.808 104.484 318.678C104.538 318.612 104.607 318.559 104.686 318.524C104.764 318.489 104.85 318.474 104.935 318.478C105.08 318.484 105.218 318.537 105.33 318.627C105.369 318.658 105.422 318.698 105.456 318.727C105.588 318.852 105.713 318.984 105.829 319.124C106.061 319.378 106.317 319.609 106.594 319.814C106.697 319.869 106.818 319.881 106.93 319.847C106.998 319.896 107.066 319.945 107.135 319.992C108.131 318.933 109.421 318.196 110.839 317.876C111.176 317.8 111.519 317.747 111.864 317.719L111.877 317.479C111.965 317.401 112.029 317.299 112.061 317.186C112.074 316.842 112.052 316.497 111.998 316.157C111.962 315.979 111.936 315.799 111.921 315.618C111.919 315.577 111.922 315.52 111.922 315.473C111.922 315.468 111.921 315.462 111.921 315.457C111.913 315.378 111.921 315.298 111.946 315.222C111.971 315.147 112.011 315.077 112.065 315.018C112.118 314.959 112.183 314.911 112.256 314.879C112.329 314.847 112.408 314.83 112.487 314.83C112.567 314.83 112.646 314.847 112.719 314.879C112.791 314.911 112.857 314.958 112.91 315.017C112.964 315.076 113.004 315.146 113.029 315.222C113.054 315.297 113.063 315.377 113.055 315.457C113.055 315.506 113.058 315.572 113.056 315.618C113.04 315.799 113.014 315.979 112.978 316.157C112.923 316.497 112.902 316.841 112.914 317.185C112.936 317.3 113.003 317.402 113.099 317.469C113.101 317.51 113.108 317.646 113.113 317.722C114.905 317.885 116.577 318.693 117.818 319.995L118.034 319.841C118.15 319.861 118.269 319.848 118.378 319.804C118.654 319.599 118.91 319.367 119.142 319.112C119.259 318.973 119.384 318.841 119.516 318.716C119.551 318.686 119.604 318.646 119.642 318.616C119.699 318.56 119.767 318.516 119.842 318.488C119.917 318.46 119.996 318.448 120.076 318.453C120.156 318.458 120.234 318.479 120.305 318.516C120.376 318.553 120.438 318.604 120.488 318.667C120.537 318.729 120.574 318.801 120.594 318.879C120.614 318.956 120.617 319.037 120.604 319.116C120.591 319.194 120.561 319.269 120.517 319.336C120.473 319.403 120.416 319.459 120.348 319.502C120.31 319.533 120.26 319.576 120.224 319.603C120.072 319.704 119.915 319.795 119.752 319.878C119.453 320.047 119.171 320.246 118.909 320.47C118.833 320.559 118.795 320.674 118.803 320.791C118.771 320.82 118.661 320.918 118.602 320.972C119.607 322.47 120.027 324.286 119.783 326.073L120.012 326.14C120.069 326.243 120.154 326.328 120.256 326.386C120.589 326.474 120.929 326.531 121.273 326.553C121.455 326.557 121.636 326.572 121.816 326.597C121.864 326.605 121.933 326.624 121.981 326.636C122.06 326.646 122.135 326.673 122.203 326.714C122.271 326.755 122.329 326.81 122.374 326.875C122.42 326.94 122.451 327.014 122.466 327.091C122.481 327.169 122.48 327.249 122.462 327.326C122.444 327.404 122.411 327.476 122.363 327.54C122.316 327.603 122.256 327.656 122.187 327.695C122.118 327.734 122.042 327.758 121.963 327.766C121.884 327.774 121.804 327.765 121.729 327.74L121.721 327.739C121.717 327.738 121.714 327.736 121.71 327.735C121.663 327.725 121.604 327.715 121.563 327.704C121.39 327.648 121.22 327.583 121.055 327.508C120.736 327.379 120.404 327.281 120.066 327.217C119.949 327.213 119.835 327.255 119.749 327.335C119.668 327.319 119.587 327.305 119.506 327.292C118.958 329.017 117.795 330.48 116.239 331.403Z" fill="#326CE5"/>
<path d="M127.299 327.71L124.746 316.621C124.678 316.334 124.546 316.066 124.361 315.836C124.176 315.606 123.943 315.42 123.677 315.291L113.343 310.358C113.076 310.23 112.783 310.164 112.486 310.164C112.189 310.164 111.896 310.23 111.628 310.358L101.295 315.294C101.03 315.423 100.796 315.609 100.611 315.839C100.426 316.068 100.295 316.336 100.226 316.623L97.6774 327.713C97.6199 327.969 97.614 328.234 97.66 328.491C97.706 328.749 97.803 328.996 97.9454 329.216C97.9804 329.269 98.0176 329.321 98.0579 329.372L105.21 338.264C105.397 338.493 105.633 338.678 105.9 338.805C106.167 338.933 106.459 339 106.754 339.001L118.223 338.999C118.519 338.997 118.811 338.93 119.078 338.803C119.345 338.676 119.58 338.491 119.768 338.263L126.917 329.369C127.101 329.139 127.23 328.87 127.296 328.583C127.362 328.296 127.363 327.998 127.299 327.711V327.71ZM126.064 328.23C126.047 328.308 126.024 328.385 125.997 328.461C125.931 328.645 125.835 328.817 125.714 328.97L119.36 336.873L119.161 337.121C119.038 337.273 118.891 337.403 118.726 337.506C118.662 337.547 118.596 337.584 118.528 337.617C118.482 337.638 118.435 337.657 118.387 337.674C118.326 337.698 118.264 337.717 118.202 337.734C118.114 337.758 118.025 337.775 117.934 337.785C117.871 337.792 117.808 337.796 117.745 337.796L107.335 337.798H107.233C107.077 337.797 106.922 337.776 106.772 337.735C106.589 337.687 106.414 337.61 106.254 337.51C106.127 337.429 106.011 337.333 105.908 337.223C105.877 337.19 105.845 337.158 105.817 337.122L99.2615 328.972C99.225 328.926 99.1908 328.878 99.1588 328.829C99.0847 328.714 99.0241 328.591 98.9784 328.463C98.9513 328.387 98.9293 328.31 98.9124 328.232C98.8552 327.975 98.8554 327.709 98.913 327.452L101.249 317.287C101.312 317.024 101.433 316.779 101.602 316.568C101.772 316.357 101.986 316.187 102.229 316.069L111.7 311.544C111.945 311.427 112.214 311.366 112.486 311.366C112.758 311.366 113.026 311.427 113.272 311.544L122.744 316.067C122.987 316.185 123.201 316.355 123.371 316.566C123.54 316.777 123.661 317.023 123.723 317.285L126.064 327.45C126.121 327.707 126.121 327.973 126.064 328.23V328.23Z" fill="white"/>
<path d="M121.981 326.636C121.933 326.624 121.864 326.605 121.816 326.597C121.636 326.572 121.455 326.557 121.273 326.553C120.929 326.53 120.589 326.474 120.256 326.386C120.153 326.328 120.069 326.243 120.012 326.14L119.783 326.073C120.027 324.285 119.607 322.47 118.602 320.971C118.661 320.918 118.772 320.82 118.803 320.791C118.795 320.674 118.833 320.559 118.909 320.47C119.17 320.246 119.453 320.047 119.752 319.878C119.915 319.795 120.072 319.704 120.224 319.603C120.26 319.576 120.31 319.533 120.348 319.502C120.416 319.459 120.473 319.403 120.517 319.336C120.561 319.27 120.591 319.194 120.604 319.116C120.617 319.037 120.614 318.956 120.594 318.879C120.574 318.802 120.538 318.729 120.488 318.667C120.438 318.604 120.376 318.553 120.305 318.516C120.234 318.479 120.156 318.458 120.076 318.453C119.997 318.448 119.917 318.46 119.842 318.488C119.767 318.516 119.699 318.56 119.642 318.616C119.604 318.646 119.551 318.686 119.517 318.716C119.384 318.841 119.259 318.973 119.142 319.112C118.91 319.367 118.654 319.599 118.378 319.804C118.269 319.848 118.15 319.861 118.034 319.841L117.818 319.995C116.577 318.693 114.905 317.885 113.113 317.722C113.107 317.646 113.101 317.51 113.099 317.469C113.003 317.402 112.936 317.3 112.914 317.185C112.902 316.841 112.924 316.497 112.978 316.157C113.014 315.979 113.04 315.799 113.055 315.618C113.057 315.572 113.055 315.506 113.055 315.457C113.063 315.377 113.054 315.297 113.029 315.222C113.004 315.146 112.964 315.076 112.91 315.017C112.857 314.958 112.791 314.911 112.719 314.879C112.646 314.846 112.567 314.83 112.487 314.83C112.408 314.83 112.329 314.847 112.256 314.879C112.183 314.911 112.118 314.959 112.065 315.018C112.011 315.077 111.971 315.146 111.946 315.222C111.921 315.298 111.913 315.378 111.921 315.457C111.921 315.463 111.922 315.468 111.922 315.473C111.922 315.52 111.919 315.577 111.921 315.618C111.936 315.799 111.962 315.979 111.998 316.157C112.052 316.497 112.074 316.842 112.061 317.185C112.029 317.299 111.965 317.4 111.877 317.479L111.864 317.718C111.519 317.747 111.176 317.8 110.839 317.876C109.421 318.196 108.131 318.933 107.135 319.992C107.066 319.944 106.998 319.896 106.93 319.847C106.818 319.88 106.697 319.869 106.594 319.814C106.317 319.609 106.061 319.378 105.829 319.124C105.713 318.984 105.588 318.852 105.456 318.727C105.422 318.698 105.369 318.657 105.33 318.627C105.218 318.536 105.08 318.484 104.935 318.477C104.85 318.473 104.764 318.489 104.685 318.524C104.607 318.558 104.538 318.611 104.484 318.678C104.392 318.807 104.355 318.968 104.381 319.124C104.407 319.281 104.494 319.421 104.623 319.513L104.632 319.519C104.669 319.55 104.714 319.589 104.749 319.614C104.9 319.714 105.057 319.806 105.219 319.889C105.518 320.058 105.801 320.257 106.062 320.481C106.13 320.578 106.169 320.691 106.176 320.808L106.357 320.971C105.355 322.475 104.943 324.296 105.201 326.085L104.963 326.154C104.901 326.253 104.818 326.336 104.72 326.399C104.387 326.488 104.047 326.544 103.704 326.567C103.522 326.571 103.34 326.585 103.16 326.61C103.116 326.618 103.056 326.634 103.008 326.645L103.003 326.647L102.995 326.649C102.917 326.659 102.841 326.686 102.774 326.727C102.706 326.768 102.648 326.823 102.602 326.888C102.557 326.953 102.526 327.027 102.511 327.105C102.496 327.182 102.497 327.262 102.515 327.34C102.532 327.417 102.566 327.489 102.613 327.553C102.66 327.616 102.721 327.669 102.789 327.708C102.858 327.747 102.935 327.772 103.014 327.779C103.092 327.787 103.172 327.778 103.247 327.754L103.256 327.752C103.259 327.751 103.263 327.75 103.266 327.749C103.313 327.738 103.372 327.727 103.413 327.716C103.586 327.661 103.756 327.596 103.922 327.521C104.241 327.392 104.572 327.295 104.91 327.23C105.027 327.237 105.14 327.277 105.236 327.345L105.483 327.303C106.038 329.017 107.201 330.469 108.752 331.385L108.649 331.632C108.697 331.731 108.715 331.843 108.7 331.952C108.558 332.275 108.386 332.584 108.186 332.874C108.076 333.019 107.975 333.17 107.882 333.327C107.86 333.37 107.831 333.435 107.81 333.48C107.769 333.548 107.743 333.624 107.733 333.703C107.723 333.782 107.73 333.862 107.753 333.938C107.776 334.014 107.814 334.084 107.866 334.144C107.918 334.205 107.982 334.253 108.054 334.287C108.125 334.322 108.203 334.34 108.283 334.342C108.362 334.344 108.441 334.33 108.515 334.299C108.588 334.269 108.654 334.224 108.709 334.166C108.764 334.109 108.806 334.04 108.833 333.966L108.834 333.965V333.963C108.856 333.919 108.886 333.861 108.904 333.819C108.969 333.649 109.024 333.476 109.068 333.3C109.166 332.941 109.314 332.599 109.507 332.281C109.575 332.218 109.66 332.176 109.751 332.162L109.88 331.93C111.563 332.577 113.425 332.582 115.111 331.943C115.147 332.007 115.214 332.13 115.232 332.161C115.348 332.18 115.452 332.243 115.521 332.337C115.682 332.641 115.812 332.96 115.911 333.29C115.955 333.466 116.01 333.64 116.075 333.81C116.093 333.852 116.123 333.91 116.145 333.955C116.172 334.03 116.214 334.098 116.269 334.156C116.324 334.213 116.39 334.259 116.463 334.289C116.537 334.319 116.616 334.334 116.695 334.332C116.775 334.33 116.853 334.312 116.925 334.278C116.997 334.244 117.061 334.195 117.112 334.135C117.164 334.075 117.203 334.005 117.226 333.928C117.249 333.852 117.256 333.772 117.247 333.694C117.237 333.615 117.211 333.539 117.17 333.47C117.148 333.426 117.119 333.36 117.096 333.318C117.004 333.162 116.902 333.011 116.792 332.866C116.596 332.583 116.427 332.282 116.29 331.966C116.26 331.853 116.275 331.733 116.333 331.632C116.297 331.557 116.265 331.481 116.239 331.403C117.795 330.48 118.958 329.017 119.506 327.292C119.58 327.304 119.707 327.326 119.749 327.335C119.835 327.255 119.949 327.213 120.066 327.217C120.404 327.281 120.735 327.379 121.055 327.508C121.22 327.583 121.39 327.648 121.563 327.704C121.604 327.715 121.663 327.725 121.71 327.735C121.714 327.736 121.717 327.738 121.721 327.739L121.729 327.74C121.804 327.765 121.884 327.774 121.962 327.766C122.041 327.758 122.117 327.734 122.186 327.695C122.255 327.656 122.315 327.603 122.363 327.54C122.41 327.476 122.443 327.403 122.461 327.326C122.479 327.249 122.48 327.169 122.465 327.091C122.45 327.014 122.419 326.94 122.374 326.875C122.328 326.81 122.27 326.755 122.203 326.714C122.135 326.673 122.06 326.646 121.981 326.636ZM116.595 320.862L114.172 322.579L114.164 322.575C114.091 322.628 114.005 322.661 113.915 322.669C113.825 322.677 113.734 322.661 113.653 322.622C113.571 322.583 113.502 322.522 113.452 322.447C113.402 322.372 113.374 322.284 113.37 322.194L113.367 322.193L113.199 319.224C114.48 319.383 115.673 319.958 116.595 320.862H116.595ZM112.031 324.116H112.943L113.51 324.825L113.307 325.708L112.488 326.102L111.666 325.708L111.463 324.823L112.031 324.116ZM111.173 319.328C111.373 319.283 111.575 319.248 111.778 319.224L111.61 322.197L111.597 322.203C111.594 322.293 111.565 322.381 111.516 322.456C111.466 322.532 111.397 322.593 111.315 322.632C111.234 322.671 111.144 322.688 111.054 322.68C110.964 322.672 110.877 322.639 110.804 322.586L110.8 322.589L108.361 320.86C109.137 320.097 110.112 319.566 111.173 319.328ZM107.477 321.971L109.703 323.962L109.701 323.974C109.769 324.034 109.82 324.11 109.848 324.196C109.876 324.282 109.88 324.374 109.86 324.463C109.84 324.551 109.796 324.632 109.733 324.697C109.671 324.762 109.592 324.809 109.504 324.833L109.502 324.843L106.648 325.666C106.506 324.377 106.798 323.076 107.477 321.971ZM110.458 327.261L109.324 330C108.236 329.304 107.408 328.267 106.968 327.052L109.894 326.555L109.899 326.562C109.932 326.556 109.964 326.553 109.997 326.553C110.079 326.554 110.16 326.576 110.232 326.615C110.303 326.655 110.364 326.712 110.409 326.781C110.454 326.85 110.481 326.928 110.488 327.01C110.495 327.092 110.481 327.174 110.449 327.25L110.458 327.261ZM113.804 330.784C112.743 331.027 111.636 330.97 110.606 330.619L112.044 328.017H112.047C112.09 327.938 112.153 327.871 112.231 327.825C112.308 327.779 112.397 327.754 112.487 327.754C112.577 327.754 112.666 327.778 112.743 327.825C112.821 327.871 112.885 327.937 112.928 328.017H112.938L114.381 330.623C114.194 330.685 114.001 330.739 113.804 330.784V330.784ZM115.663 330.011L114.518 327.244L114.521 327.239C114.471 327.12 114.467 326.987 114.513 326.866C114.558 326.745 114.648 326.647 114.764 326.591C114.823 326.562 114.889 326.545 114.955 326.541C114.993 326.539 115.032 326.542 115.07 326.55L115.075 326.543L118.027 327.042C117.591 328.267 116.759 329.312 115.663 330.011ZM118.337 325.657L115.469 324.831L115.466 324.818C115.379 324.794 115.3 324.747 115.238 324.682C115.175 324.617 115.132 324.536 115.112 324.448C115.091 324.359 115.096 324.268 115.123 324.182C115.151 324.096 115.202 324.019 115.27 323.96L115.269 323.954L117.483 321.972C118.161 323.075 118.46 324.368 118.337 325.657L118.337 325.657Z" fill="white"/>
</g>
<g filter="url(#filter0_d_1287_42)">
<path d="M209.583 173.574L228.824 187.524L218.241 195.22L199 181.27L209.583 173.574Z" fill="white"/>
<path d="M199.004 181.27L218.241 195.22V206.765L199 192.815L199.004 181.27Z" fill="#D9D9D9"/>
<path d="M200.924 184.591C200.924 184.204 201.359 183.975 201.678 184.195C201.809 184.285 201.886 184.433 201.886 184.591V192.574C201.886 192.971 201.434 193.197 201.117 192.959C200.996 192.868 200.924 192.726 200.924 192.574V184.591Z" fill="#626262"/>
<path d="M203.33 186.515C203.33 186.128 203.765 185.899 204.084 186.119C204.214 186.209 204.292 186.357 204.292 186.515V194.498C204.292 194.895 203.839 195.121 203.522 194.883C203.401 194.792 203.33 194.65 203.33 194.498V186.515Z" fill="#626262"/>
<path d="M205.735 188.44C205.735 188.052 206.17 187.824 206.489 188.044C206.619 188.133 206.697 188.281 206.697 188.44V196.423C206.697 196.819 206.244 197.045 205.927 196.807C205.806 196.717 205.735 196.574 205.735 196.423V188.44Z" fill="#626262"/>
<path d="M208.14 189.883C208.14 189.495 208.575 189.267 208.894 189.487C209.024 189.576 209.102 189.724 209.102 189.883V197.866C209.102 198.262 208.649 198.488 208.332 198.25C208.211 198.16 208.14 198.017 208.14 197.866V189.883Z" fill="#626262"/>
<path d="M210.544 191.807C210.544 191.419 210.979 191.191 211.299 191.411C211.429 191.5 211.506 191.649 211.506 191.807V199.79C211.506 200.186 211.054 200.412 210.737 200.175C210.616 200.084 210.544 199.941 210.544 199.79V191.807Z" fill="#626262"/>
<path d="M212.95 193.731C212.95 193.343 213.385 193.115 213.704 193.335C213.835 193.425 213.912 193.573 213.912 193.731V201.714C213.912 202.11 213.46 202.337 213.143 202.099C213.021 202.008 212.95 201.865 212.95 201.714V193.731Z" fill="#626262"/>
<path d="M215.355 195.655C215.355 195.267 215.79 195.039 216.11 195.259C216.24 195.349 216.318 195.497 216.318 195.655V203.638C216.318 204.034 215.865 204.261 215.548 204.023C215.427 203.932 215.355 203.789 215.355 203.638V195.655Z" fill="#626262"/>
<path d="M228.82 187.524L218.241 195.22V206.765L228.82 199.068L228.82 187.524Z" fill="#9A9A9A"/>
</g>
<g filter="url(#filter1_d_1287_42)">
<path d="M209.583 310.574L228.824 324.524L218.241 332.22L199 318.27L209.583 310.574Z" fill="white"/>
<path d="M199.004 318.27L218.241 332.22V343.765L199 329.815L199.004 318.27Z" fill="#D9D9D9"/>
<path d="M200.924 321.591C200.924 321.204 201.359 320.975 201.678 321.195C201.809 321.285 201.886 321.433 201.886 321.591V329.574C201.886 329.971 201.434 330.197 201.117 329.959C200.996 329.868 200.924 329.726 200.924 329.574V321.591Z" fill="#626262"/>
<path d="M203.33 323.516C203.33 323.128 203.765 322.899 204.084 323.12C204.214 323.209 204.292 323.357 204.292 323.516V331.499C204.292 331.895 203.839 332.121 203.522 331.883C203.401 331.793 203.33 331.65 203.33 331.499V323.516Z" fill="#626262"/>
<path d="M205.735 325.44C205.735 325.052 206.17 324.824 206.489 325.044C206.619 325.133 206.697 325.281 206.697 325.44V333.423C206.697 333.819 206.244 334.045 205.927 333.807C205.806 333.717 205.735 333.574 205.735 333.423V325.44Z" fill="#626262"/>
<path d="M208.14 326.883C208.14 326.495 208.575 326.267 208.894 326.487C209.024 326.577 209.102 326.725 209.102 326.883V334.866C209.102 335.262 208.649 335.488 208.332 335.251C208.211 335.16 208.14 335.017 208.14 334.866V326.883Z" fill="#626262"/>
<path d="M210.544 328.807C210.544 328.419 210.979 328.191 211.299 328.411C211.429 328.501 211.506 328.649 211.506 328.807V336.79C211.506 337.186 211.054 337.412 210.737 337.175C210.616 337.084 210.544 336.941 210.544 336.79V328.807Z" fill="#626262"/>
<path d="M212.95 330.731C212.95 330.343 213.385 330.115 213.704 330.335C213.835 330.425 213.912 330.573 213.912 330.731V338.714C213.912 339.11 213.46 339.337 213.143 339.099C213.021 339.008 212.95 338.865 212.95 338.714V330.731Z" fill="#626262"/>
<path d="M215.355 332.655C215.355 332.267 215.79 332.039 216.11 332.259C216.24 332.349 216.318 332.497 216.318 332.655V340.638C216.318 341.034 215.865 341.261 215.548 341.023C215.427 340.932 215.355 340.789 215.355 340.638V332.655Z" fill="#626262"/>
<path d="M228.82 324.523L218.241 332.22V343.765L228.82 336.068L228.82 324.523Z" fill="#9A9A9A"/>
</g>
<g filter="url(#filter2_d_1287_42)">
<path d="M310.583 241.574L329.824 255.524L319.241 263.22L300 249.27L310.583 241.574Z" fill="white"/>
<path d="M300.004 249.27L319.241 263.22V274.765L300 260.815L300.004 249.27Z" fill="#D9D9D9"/>
<path d="M301.924 252.591C301.924 252.204 302.359 251.975 302.678 252.195C302.809 252.285 302.886 252.433 302.886 252.591V260.574C302.886 260.971 302.434 261.197 302.117 260.959C301.996 260.868 301.924 260.726 301.924 260.574V252.591Z" fill="#626262"/>
<path d="M304.33 254.516C304.33 254.128 304.765 253.899 305.084 254.12C305.214 254.209 305.292 254.357 305.292 254.516V262.499C305.292 262.895 304.839 263.121 304.522 262.883C304.401 262.793 304.33 262.65 304.33 262.499V254.516Z" fill="#626262"/>
<path d="M306.735 256.44C306.735 256.052 307.17 255.824 307.489 256.044C307.619 256.133 307.697 256.281 307.697 256.44V264.423C307.697 264.819 307.244 265.045 306.927 264.807C306.806 264.717 306.735 264.574 306.735 264.423V256.44Z" fill="#626262"/>
<path d="M309.14 257.883C309.14 257.495 309.575 257.267 309.894 257.487C310.024 257.577 310.102 257.725 310.102 257.883V265.866C310.102 266.262 309.649 266.488 309.332 266.251C309.211 266.16 309.14 266.017 309.14 265.866V257.883Z" fill="#626262"/>
<path d="M311.544 259.807C311.544 259.419 311.979 259.191 312.299 259.411C312.429 259.501 312.506 259.649 312.506 259.807V267.79C312.506 268.186 312.054 268.412 311.737 268.175C311.616 268.084 311.544 267.941 311.544 267.79V259.807Z" fill="#626262"/>
<path d="M313.95 261.731C313.95 261.343 314.385 261.115 314.704 261.335C314.835 261.425 314.912 261.573 314.912 261.731V269.714C314.912 270.11 314.46 270.337 314.143 270.099C314.021 270.008 313.95 269.865 313.95 269.714V261.731Z" fill="#626262"/>
<path d="M316.355 263.655C316.355 263.267 316.79 263.039 317.11 263.259C317.24 263.349 317.318 263.497 317.318 263.655V271.638C317.318 272.034 316.865 272.261 316.548 272.023C316.427 271.932 316.355 271.789 316.355 271.638V263.655Z" fill="#626262"/>
<path d="M329.82 255.523L319.241 263.22V274.765L329.82 267.068L329.82 255.523Z" fill="#9A9A9A"/>
</g>
<g filter="url(#filter3_d_1287_42)">
<path d="M265.417 274.574L246.176 288.524L256.759 296.22L276 282.27L265.417 274.574Z" fill="#EEEEEE"/>
<path d="M275.996 282.27L256.759 296.22V307.765L276 293.815L275.996 282.27Z" fill="#D9D9D9"/>
<path d="M274.075 285.591C274.075 285.204 273.64 284.975 273.321 285.195C273.191 285.285 273.113 285.433 273.113 285.591V293.574C273.113 293.971 273.566 294.197 273.883 293.959C274.004 293.868 274.075 293.726 274.075 293.574V285.591Z" fill="#626262"/>
<path d="M271.671 287.516C271.671 287.128 271.236 286.899 270.917 287.12C270.787 287.209 270.709 287.357 270.709 287.516V295.499C270.709 295.895 271.161 296.121 271.478 295.883C271.6 295.793 271.671 295.65 271.671 295.499V287.516Z" fill="#626262"/>
<path d="M269.265 289.44C269.265 289.052 268.83 288.824 268.511 289.044C268.381 289.133 268.303 289.281 268.303 289.44V297.423C268.303 297.819 268.756 298.045 269.073 297.807C269.194 297.717 269.265 297.574 269.265 297.423V289.44Z" fill="#626262"/>
<path d="M266.861 290.883C266.861 290.495 266.426 290.267 266.107 290.487C265.977 290.577 265.899 290.725 265.899 290.883V298.866C265.899 299.262 266.351 299.488 266.668 299.251C266.79 299.16 266.861 299.017 266.861 298.866V290.883Z" fill="#626262"/>
<path d="M264.455 292.807C264.455 292.419 264.02 292.191 263.701 292.411C263.571 292.501 263.493 292.649 263.493 292.807V300.79C263.493 301.186 263.946 301.412 264.263 301.175C264.384 301.084 264.455 300.941 264.455 300.79V292.807Z" fill="#626262"/>
<path d="M262.05 294.731C262.05 294.343 261.615 294.115 261.296 294.335C261.165 294.425 261.088 294.573 261.088 294.731V302.714C261.088 303.111 261.54 303.337 261.857 303.099C261.979 303.008 262.05 302.866 262.05 302.714V294.731Z" fill="#626262"/>
<path d="M259.646 296.655C259.646 296.268 259.21 296.039 258.891 296.259C258.761 296.349 258.683 296.497 258.683 296.655V304.638C258.683 305.035 259.136 305.261 259.453 305.023C259.574 304.932 259.646 304.79 259.646 304.638V296.655Z" fill="#626262"/>
<path d="M246.18 288.523L256.759 296.22V307.765L246.18 300.068L246.18 288.523Z" fill="#9A9A9A"/>
</g>
<g filter="url(#filter4_d_1287_42)">
<path d="M316.242 376.574L297 390.524L307.583 398.22L326.824 384.27L316.242 376.574Z" fill="#EEEEEE"/>
<path d="M326.82 384.27L307.583 398.22V409.765L326.824 395.815L326.82 384.27Z" fill="#D9D9D9"/>
<path d="M324.899 387.591C324.899 387.204 324.464 386.975 324.145 387.195C324.015 387.285 323.937 387.433 323.937 387.591V395.574C323.937 395.971 324.39 396.197 324.707 395.959C324.828 395.868 324.899 395.726 324.899 395.574V387.591Z" fill="#626262"/>
<path d="M322.495 389.516C322.495 389.128 322.06 388.899 321.741 389.12C321.611 389.209 321.533 389.357 321.533 389.516V397.499C321.533 397.895 321.986 398.121 322.303 397.883C322.424 397.793 322.495 397.65 322.495 397.499V389.516Z" fill="#626262"/>
<path d="M320.089 391.44C320.089 391.052 319.654 390.824 319.335 391.044C319.205 391.133 319.127 391.281 319.127 391.44V399.423C319.127 399.819 319.58 400.045 319.897 399.807C320.018 399.717 320.089 399.574 320.089 399.423V391.44Z" fill="#626262"/>
<path d="M317.685 392.883C317.685 392.495 317.25 392.267 316.931 392.487C316.801 392.577 316.723 392.725 316.723 392.883V400.866C316.723 401.262 317.176 401.488 317.493 401.251C317.614 401.16 317.685 401.017 317.685 400.866V392.883Z" fill="#626262"/>
<path d="M315.279 394.807C315.279 394.419 314.844 394.191 314.525 394.411C314.395 394.501 314.317 394.649 314.317 394.807V402.79C314.317 403.186 314.77 403.412 315.087 403.175C315.208 403.084 315.279 402.941 315.279 402.79V394.807Z" fill="#626262"/>
<path d="M312.874 396.731C312.874 396.343 312.439 396.115 312.12 396.335C311.99 396.425 311.912 396.573 311.912 396.731V404.714C311.912 405.111 312.364 405.337 312.682 405.099C312.803 405.008 312.874 404.866 312.874 404.714V396.731Z" fill="#626262"/>
<path d="M310.47 398.655C310.47 398.268 310.035 398.039 309.716 398.259C309.585 398.349 309.508 398.497 309.508 398.655V406.638C309.508 407.035 309.96 407.261 310.277 407.023C310.398 406.932 310.47 406.79 310.47 406.638V398.655Z" fill="#626262"/>
<path d="M297.004 390.523L307.583 398.22V409.765L297.004 402.068L297.004 390.523Z" fill="#9A9A9A"/>
</g>
<g filter="url(#filter5_d_1287_42)">
<path d="M266.242 206.574L247 220.524L257.583 228.22L276.824 214.27L266.242 206.574Z" fill="#B0B0B0"/>
<path d="M276.82 214.27L257.583 228.22V239.765L276.824 225.815L276.82 214.27Z" fill="#D9D9D9"/>
<path d="M274.899 217.591C274.899 217.204 274.464 216.975 274.145 217.195C274.015 217.285 273.937 217.433 273.937 217.591V225.574C273.937 225.971 274.39 226.197 274.707 225.959C274.828 225.868 274.899 225.726 274.899 225.574V217.591Z" fill="#626262"/>
<path d="M272.495 219.515C272.495 219.128 272.06 218.899 271.741 219.119C271.611 219.209 271.533 219.357 271.533 219.515V227.498C271.533 227.895 271.986 228.121 272.303 227.883C272.424 227.792 272.495 227.65 272.495 227.498V219.515Z" fill="#626262"/>
<path d="M270.089 221.44C270.089 221.052 269.654 220.824 269.335 221.044C269.205 221.134 269.127 221.282 269.127 221.44V229.423C269.127 229.819 269.58 230.045 269.897 229.808C270.018 229.717 270.089 229.574 270.089 229.423V221.44Z" fill="#626262"/>
<path d="M267.685 222.883C267.685 222.495 267.25 222.267 266.931 222.487C266.801 222.576 266.723 222.724 266.723 222.883V230.866C266.723 231.262 267.176 231.488 267.493 231.25C267.614 231.16 267.685 231.017 267.685 230.866V222.883Z" fill="#626262"/>
<path d="M265.279 224.807C265.279 224.419 264.844 224.191 264.525 224.411C264.395 224.501 264.317 224.649 264.317 224.807V232.79C264.317 233.186 264.77 233.413 265.087 233.175C265.208 233.084 265.279 232.941 265.279 232.79V224.807Z" fill="#626262"/>
<path d="M262.874 226.731C262.874 226.343 262.439 226.115 262.12 226.335C261.99 226.425 261.912 226.573 261.912 226.731V234.714C261.912 235.11 262.364 235.337 262.682 235.099C262.803 235.008 262.874 234.865 262.874 234.714V226.731Z" fill="#626262"/>
<path d="M260.47 228.655C260.47 228.268 260.035 228.039 259.716 228.259C259.585 228.349 259.508 228.497 259.508 228.655V236.638C259.508 237.035 259.96 237.261 260.277 237.023C260.398 236.932 260.47 236.79 260.47 236.638V228.655Z" fill="#626262"/>
<path d="M247.004 220.524L257.583 228.22V239.765L247.004 232.068L247.004 220.524Z" fill="#9A9A9A"/>
</g>
<g filter="url(#filter6_d_1287_42)">
<path d="M259.583 344.574L278.824 358.524L268.241 366.22L249 352.27L259.583 344.574Z" fill="#B0B0B0"/>
<path d="M249.004 352.27L268.241 366.22V377.765L249 363.815L249.004 352.27Z" fill="#D9D9D9"/>
<path d="M250.924 355.591C250.924 355.204 251.359 354.975 251.678 355.195C251.808 355.285 251.886 355.433 251.886 355.591V363.574C251.886 363.971 251.433 364.197 251.116 363.959C250.995 363.868 250.924 363.726 250.924 363.574V355.591Z" fill="#626262"/>
<path d="M253.329 357.516C253.329 357.128 253.764 356.899 254.083 357.12C254.213 357.209 254.291 357.357 254.291 357.516V365.499C254.291 365.895 253.839 366.121 253.522 365.883C253.4 365.793 253.329 365.65 253.329 365.499V357.516Z" fill="#626262"/>
<path d="M255.734 359.44C255.734 359.052 256.169 358.824 256.488 359.044C256.619 359.133 256.696 359.281 256.696 359.44V367.423C256.696 367.819 256.244 368.045 255.927 367.807C255.806 367.717 255.734 367.574 255.734 367.423V359.44Z" fill="#626262"/>
<path d="M258.14 360.883C258.14 360.495 258.575 360.267 258.894 360.487C259.024 360.577 259.102 360.725 259.102 360.883V368.866C259.102 369.262 258.649 369.488 258.332 369.251C258.211 369.16 258.14 369.017 258.14 368.866V360.883Z" fill="#626262"/>
<path d="M260.544 362.807C260.544 362.419 260.979 362.191 261.299 362.411C261.429 362.501 261.506 362.649 261.506 362.807V370.79C261.506 371.186 261.054 371.412 260.737 371.175C260.616 371.084 260.544 370.941 260.544 370.79V362.807Z" fill="#626262"/>
<path d="M262.95 364.731C262.95 364.343 263.385 364.115 263.704 364.335C263.834 364.425 263.912 364.573 263.912 364.731V372.714C263.912 373.11 263.459 373.337 263.142 373.099C263.021 373.008 262.95 372.865 262.95 372.714V364.731Z" fill="#626262"/>
<path d="M265.355 366.655C265.355 366.268 265.79 366.039 266.109 366.259C266.239 366.349 266.317 366.497 266.317 366.655V374.638C266.317 375.035 265.865 375.261 265.547 375.023C265.426 374.932 265.355 374.79 265.355 374.638V366.655Z" fill="#626262"/>
<path d="M278.82 358.523L268.241 366.22V377.765L278.82 370.068L278.82 358.523Z" fill="#9A9A9A"/>
</g>
<path fill-rule="evenodd" clip-rule="evenodd" d="M269.855 331.605L268.156 330.461C267.728 330.173 267.404 329.803 267.184 329.39L265.42 330.333C265.792 331.028 266.336 331.647 267.039 332.12L268.738 333.264L269.855 331.605ZM267.169 326.582L265.395 325.658C265.76 324.958 266.298 324.334 266.996 323.854L268.643 322.72L269.777 324.367L268.13 325.501C267.706 325.793 267.385 326.167 267.169 326.582ZM273.071 322.099L271.937 320.452L275.232 318.184L276.366 319.831L273.071 322.099ZM279.66 317.563L278.526 315.915L281.821 313.647L282.955 315.295L279.66 317.563ZM286.25 313.027L285.115 311.379L288.41 309.111L289.544 310.759L286.25 313.027ZM292.839 308.49L291.704 306.843L294.999 304.575L296.133 306.222L292.839 308.49ZM299.428 303.954L298.294 302.307L301.588 300.039L302.722 301.686L299.428 303.954ZM306.017 299.418L304.883 297.771L308.177 295.503L309.311 297.15L306.017 299.418ZM312.606 294.882L311.472 293.235L314.766 290.966L315.9 292.614L312.606 294.882ZM319.195 290.346L318.061 288.698L321.355 286.43L322.489 288.078L319.195 290.346ZM325.784 285.81L324.65 284.162L327.944 281.894L329.078 283.541L325.784 285.81ZM332.373 281.273L331.239 279.626L334.533 277.358L335.667 279.005L332.373 281.273ZM338.962 276.737L337.828 275.09L341.122 272.822L342.257 274.469L338.962 276.737ZM345.551 272.201L344.417 270.554L347.712 268.286L348.846 269.933L345.551 272.201ZM352.14 267.665L351.006 266.017L354.301 263.749L355.435 265.397L352.14 267.665ZM358.729 263.129L357.595 261.481L359.242 260.347C359.392 260.244 359.495 260.121 359.563 259.99L361.336 260.915C361.12 261.33 360.8 261.703 360.376 261.995L358.729 263.129ZM361.324 258.109L359.559 259.049C359.49 258.919 359.386 258.797 359.235 258.695L357.58 257.577L358.699 255.919L360.355 257.038C360.781 257.326 361.104 257.696 361.324 258.109ZM355.389 253.683L354.269 255.34L350.959 253.104L352.078 251.447L355.389 253.683ZM348.768 249.211L347.648 250.868L344.337 248.632L345.457 246.974L348.768 249.211ZM342.146 244.738L341.027 246.395L337.716 244.159L338.836 242.502L342.146 244.738ZM335.525 240.265L334.406 241.923L331.095 239.686L332.215 238.029L335.525 240.265ZM328.904 235.793L327.784 237.45L324.474 235.214L325.593 233.557L328.904 235.793ZM322.283 231.32L321.163 232.978L317.853 230.741L318.972 229.084L322.283 231.32ZM315.662 226.848L314.542 228.505L311.232 226.269L312.351 224.611L315.662 226.848ZM309.04 222.375L307.921 224.032L304.61 221.796L305.73 220.139L309.04 222.375ZM302.419 217.902L301.3 219.56L297.989 217.324L299.109 215.666L302.419 217.902ZM295.798 213.43L294.679 215.087L291.368 212.851L292.488 211.194L295.798 213.43ZM289.177 208.957L288.057 210.615L284.747 208.378L285.866 206.721L289.177 208.957ZM282.556 204.485L281.436 206.142L278.126 203.906L279.245 202.248L282.556 204.485ZM275.935 200.012L274.815 201.669L271.504 199.433L272.624 197.776L275.935 200.012ZM269.313 195.54L268.194 197.197L264.883 194.961L266.003 193.303L269.313 195.54ZM262.692 191.067L261.573 192.724L258.262 190.488L259.382 188.831L262.692 191.067ZM256.071 186.594L254.952 188.252L251.641 186.015L252.76 184.358L256.071 186.594ZM249.45 182.122L248.33 183.779L245.02 181.543L246.139 179.886L249.45 182.122ZM242.829 177.649L241.709 179.307L238.399 177.07L239.518 175.413L242.829 177.649ZM236.208 173.177L235.088 174.834L231.777 172.598L232.897 170.94L236.208 173.177ZM229.586 168.704L228.467 170.361L225.156 168.125L226.276 166.468L229.586 168.704ZM222.965 164.232L221.846 165.889L218.535 163.653L219.655 161.995L222.965 164.232ZM216.344 159.759L215.225 161.416L213.569 160.298C213.229 160.069 212.784 160.07 212.445 160.301L210.832 161.404L209.703 159.752L211.317 158.65C212.333 157.956 213.669 157.952 214.689 158.641L216.344 159.759ZM206.476 161.957L207.604 163.609L204.376 165.814L203.248 164.162L206.476 161.957ZM200.02 166.367L201.148 168.019L197.921 170.224L196.793 168.572L200.02 166.367ZM193.565 170.777L194.693 172.429L191.465 174.634L190.337 172.983L193.565 170.777ZM187.109 175.188L188.238 176.839L185.01 179.044L183.882 177.393L187.109 175.188ZM180.654 179.598L181.782 181.249L178.555 183.454L177.426 181.803L180.654 179.598ZM174.199 184.008L175.327 185.659L172.099 187.864L170.971 186.213L174.199 184.008ZM167.743 188.418L168.871 190.069L167.258 191.172C167.107 191.275 167.004 191.397 166.936 191.528L165.166 190.596C165.384 190.182 165.705 189.811 166.129 189.52L167.743 188.418ZM165.167 193.401L166.936 192.468C167.005 192.599 167.108 192.721 167.258 192.824L168.897 193.941L167.77 195.593L166.132 194.476C165.707 194.187 165.385 193.815 165.167 193.401ZM171.047 197.828L172.174 196.175L175.451 198.41L174.325 200.062L171.047 197.828ZM177.602 202.297L178.728 200.644L182.005 202.879L180.879 204.531L177.602 202.297ZM184.156 206.765L185.283 205.113L188.56 207.347L187.433 209L184.156 206.765ZM190.71 211.234L191.837 209.582L195.114 211.816L193.987 213.469L190.71 211.234ZM197.264 215.703L198.391 214.051L201.668 216.285L200.542 217.937L197.264 215.703ZM203.819 220.172L204.945 218.519L208.222 220.754L207.096 222.406L203.819 220.172ZM210.373 224.641L211.5 222.988L214.777 225.223L213.65 226.875L210.373 224.641ZM216.927 229.109L218.054 227.457L221.331 229.691L220.204 231.344L216.927 229.109ZM223.481 233.578L224.608 231.926L227.885 234.16L226.759 235.813L223.481 233.578ZM230.036 238.047L231.162 236.395L234.439 238.629L233.313 240.281L230.036 238.047ZM236.59 242.516L237.717 240.863L240.994 243.098L239.867 244.75L236.59 242.516ZM243.144 246.985L244.271 245.332L247.548 247.567L246.421 249.219L243.144 246.985ZM249.698 251.454L250.825 249.801L254.102 252.035L252.976 253.688L249.698 251.454ZM256.253 255.922L257.379 254.27L259.018 255.387C259.715 255.862 260.254 256.48 260.621 257.175L258.854 258.111C258.635 257.698 258.315 257.328 257.891 257.04L256.253 255.922ZM258.863 260.908L260.637 261.831C260.274 262.528 259.74 263.15 259.046 263.63L257.406 264.765L256.268 263.12L257.908 261.985C258.33 261.694 258.648 261.321 258.863 260.908ZM252.987 265.39L254.125 267.035L250.844 269.305L249.706 267.66L252.987 265.39ZM246.426 269.93L247.564 271.575L244.283 273.845L243.145 272.2L246.426 269.93ZM239.864 274.47L241.002 276.115L237.722 278.385L236.584 276.74L239.864 274.47ZM233.303 279.01L234.441 280.655L231.16 282.925L230.022 281.28L233.303 279.01ZM226.741 283.55L227.879 285.195L224.599 287.465L223.461 285.82L226.741 283.55ZM220.18 288.09L221.318 289.735L218.037 292.005L216.899 290.36L220.18 288.09ZM213.619 292.63L214.756 294.275L211.476 296.545L210.338 294.9L213.619 292.63ZM207.057 297.17L208.195 298.815L204.914 301.085L203.776 299.44L207.057 297.17ZM200.496 301.71L201.634 303.355L198.353 305.625L197.215 303.98L200.496 301.71ZM193.934 306.25L195.072 307.895L191.791 310.165L190.654 308.52L193.934 306.25ZM187.373 310.79L188.511 312.435L185.23 314.705L184.092 313.06L187.373 310.79ZM180.811 315.33L181.949 316.975L178.669 319.245L177.531 317.6L180.811 315.33ZM174.25 319.87L175.388 321.515L172.107 323.785L170.969 322.14L174.25 319.87ZM167.688 324.41L168.826 326.055L167.186 327.19C167.038 327.292 166.936 327.414 166.869 327.544L165.097 326.615C165.313 326.204 165.63 325.835 166.048 325.545L167.688 324.41ZM165.091 329.397C165.304 329.809 165.62 330.18 166.037 330.471L167.693 331.629L168.839 329.989L167.182 328.832C167.035 328.729 166.934 328.606 166.866 328.476L165.091 329.397ZM171.006 333.943L172.152 332.304L175.464 334.618L174.319 336.258L171.006 333.943ZM177.632 338.572L178.777 336.933L182.09 339.247L180.945 340.887L177.632 338.572ZM184.258 343.202L185.403 341.562L188.716 343.877L187.57 345.516L184.258 343.202ZM190.883 347.831L192.029 346.191L195.342 348.506L194.196 350.145L190.883 347.831ZM197.509 352.46L198.654 350.82L201.967 353.135L200.822 354.775L197.509 352.46ZM204.135 357.089L205.28 355.45L208.593 357.764L207.447 359.404L204.135 357.089ZM210.76 361.718L211.906 360.079L215.219 362.393L214.073 364.033L210.76 361.718ZM217.386 366.348L218.531 364.708L221.844 367.023L220.699 368.662L217.386 366.348ZM224.012 370.977L225.157 369.337L228.47 371.652L227.325 373.291L224.012 370.977ZM230.637 375.606L231.783 373.966L235.096 376.281L233.95 377.921L230.637 375.606ZM237.263 380.235L238.409 378.596L241.721 380.91L240.576 382.55L237.263 380.235ZM243.889 384.864L245.034 383.225L248.347 385.54L247.202 387.179L243.889 384.864ZM250.514 389.494L251.66 387.854L254.973 390.169L253.827 391.808L250.514 389.494ZM257.14 394.123L258.286 392.483L261.598 394.798L260.453 396.437L257.14 394.123ZM263.766 398.752L264.911 397.113L268.224 399.427L267.079 401.067L263.766 398.752ZM270.392 403.381L271.537 401.742L274.85 404.056L273.704 405.696L270.392 403.381ZM277.017 408.01L278.163 406.371L281.476 408.686L280.33 410.325L277.017 408.01ZM283.643 412.64L284.788 411L288.101 413.315L286.956 414.954L283.643 412.64ZM290.269 417.269L291.414 415.629L294.727 417.944L293.581 419.583L290.269 417.269ZM296.894 421.898L298.04 420.259L301.353 422.573L300.207 424.213L296.894 421.898ZM303.52 426.527L304.665 424.888L307.978 427.202L306.833 428.842L303.52 426.527ZM310.146 431.156L311.291 429.517L312.947 430.674C313.288 430.912 313.741 430.915 314.084 430.681L315.803 429.508L316.93 431.16L315.211 432.333C314.181 433.035 312.824 433.028 311.802 432.314L310.146 431.156ZM320.368 428.814L319.241 427.162L322.679 424.817L323.806 426.469L320.368 428.814ZM327.244 424.123L326.117 422.471L329.555 420.126L330.682 421.778L327.244 424.123ZM334.12 419.432L332.993 417.78L336.431 415.434L337.558 417.087L334.12 419.432ZM340.996 414.741L339.869 413.089L343.307 410.743L344.434 412.395L340.996 414.741ZM347.872 410.05L346.745 408.398L350.183 406.052L351.31 407.704L347.872 410.05ZM354.748 405.359L353.621 403.707L357.059 401.361L358.186 403.013L354.748 405.359ZM361.624 400.668L360.497 399.015L362.216 397.843C362.367 397.74 362.47 397.616 362.539 397.486L364.31 398.415C364.092 398.831 363.77 399.204 363.343 399.495L361.624 400.668ZM364.301 395.602L362.536 396.542C362.467 396.412 362.363 396.289 362.211 396.187L360.511 395.043L361.628 393.384L363.328 394.528C363.756 394.816 364.08 395.187 364.301 395.602ZM358.229 391.096L357.112 392.755L353.713 390.467L354.83 388.808L358.229 391.096ZM351.431 386.52L350.314 388.179L346.915 385.891L348.032 384.231L351.431 386.52ZM344.633 381.943L343.516 383.602L340.117 381.314L341.234 379.655L344.633 381.943ZM337.835 377.367L336.718 379.026L333.319 376.738L334.436 375.079L337.835 377.367ZM331.037 372.791L329.92 374.45L326.521 372.162L327.638 370.503L331.037 372.791ZM324.239 368.215L323.122 369.874L319.723 367.586L320.84 365.927L324.239 368.215ZM317.441 363.638L316.324 365.298L312.925 363.009L314.042 361.35L317.441 363.638ZM310.643 359.062L309.526 360.721L306.127 358.433L307.244 356.774L310.643 359.062ZM303.845 354.486L302.728 356.145L299.329 353.857L300.446 352.198L303.845 354.486ZM297.047 349.91L295.93 351.569L292.531 349.281L293.648 347.622L297.047 349.91ZM290.249 345.334L289.132 346.993L285.733 344.705L286.85 343.045L290.249 345.334ZM283.451 340.757L282.334 342.416L278.935 340.128L280.052 338.469L283.451 340.757ZM276.653 336.181L275.536 337.84L272.137 335.552L273.254 333.893L276.653 336.181Z" fill="#75FB7A"/>
<path fill-rule="evenodd" clip-rule="evenodd" d="M158 43L158 132L156 132L156 43L158 43Z" fill="white"/>
<path d="M156 18H246V45H156V18Z" fill="white"/>
<path d="M235.354 28.2728V30.3182H229.848V28.2728H235.354ZM231.002 26.1819H233.78V34.2557C233.78 34.4262 233.806 34.5645 233.86 34.6705C233.916 34.7728 233.998 34.8467 234.104 34.8921C234.21 34.9338 234.337 34.9546 234.485 34.9546C234.591 34.9546 234.702 34.9451 234.82 34.9262C234.941 34.9035 235.032 34.8845 235.092 34.8694L235.513 36.8751C235.38 36.9129 235.193 36.9603 234.95 37.0171C234.712 37.0739 234.426 37.1099 234.092 37.1251C233.441 37.1554 232.882 37.0796 232.416 36.8978C231.954 36.7122 231.6 36.4243 231.354 36.0342C231.111 35.644 230.994 35.1535 231.002 34.5626V26.1819Z" fill="#7A49F6"/>
<path d="M228.844 30.9376L226.293 31.0058C226.266 30.824 226.194 30.663 226.077 30.5228C225.96 30.3789 225.806 30.2671 225.617 30.1876C225.431 30.1043 225.215 30.0626 224.969 30.0626C224.647 30.0626 224.372 30.127 224.145 30.2558C223.922 30.3846 223.812 30.5588 223.816 30.7785C223.812 30.949 223.88 31.0967 224.02 31.2217C224.164 31.3467 224.42 31.4471 224.787 31.5228L226.469 31.841C227.34 32.0077 227.988 32.2842 228.412 32.6705C228.84 33.0569 229.056 33.5683 229.06 34.2046C229.056 34.8031 228.878 35.324 228.526 35.7671C228.177 36.2103 227.7 36.555 227.094 36.8012C226.488 37.0436 225.795 37.1649 225.015 37.1649C223.768 37.1649 222.785 36.9092 222.066 36.3978C221.35 35.8827 220.941 35.1933 220.838 34.3296L223.583 34.2615C223.643 34.5796 223.8 34.8221 224.054 34.9887C224.308 35.1554 224.632 35.2387 225.026 35.2387C225.382 35.2387 225.672 35.1724 225.895 35.0399C226.119 34.9073 226.232 34.7311 226.236 34.5115C226.232 34.3145 226.145 34.1573 225.975 34.0399C225.804 33.9186 225.537 33.824 225.174 33.7558L223.651 33.466C222.776 33.3069 222.124 33.0133 221.696 32.5853C221.268 32.1535 221.056 31.6043 221.06 30.9376C221.056 30.3543 221.211 29.8561 221.526 29.4433C221.84 29.0266 222.287 28.7084 222.867 28.4887C223.446 28.269 224.13 28.1592 224.918 28.1592C226.1 28.1592 227.032 28.4073 227.713 28.9035C228.395 29.3959 228.772 30.074 228.844 30.9376Z" fill="#7A49F6"/>
<path d="M214.31 37.1478C213.753 37.1478 213.259 37.055 212.827 36.8694C212.399 36.68 212.06 36.3959 211.81 36.0171C211.564 35.6346 211.44 35.1554 211.44 34.5796C211.44 34.0948 211.526 33.6857 211.696 33.3524C211.867 33.019 212.101 32.7482 212.401 32.5399C212.7 32.3315 213.045 32.1743 213.435 32.0683C213.825 31.9584 214.242 31.8846 214.685 31.8467C215.181 31.8012 215.581 31.7539 215.884 31.7046C216.187 31.6516 216.406 31.5777 216.543 31.483C216.683 31.3846 216.753 31.2463 216.753 31.0683V31.0399C216.753 30.7482 216.653 30.5228 216.452 30.3637C216.251 30.2046 215.98 30.1251 215.639 30.1251C215.272 30.1251 214.976 30.2046 214.753 30.3637C214.529 30.5228 214.387 30.7425 214.327 31.0228L211.764 30.9319C211.84 30.4016 212.035 29.9281 212.35 29.5115C212.668 29.091 213.103 28.7615 213.656 28.5228C214.213 28.2804 214.882 28.1592 215.662 28.1592C216.219 28.1592 216.732 28.2255 217.202 28.358C217.671 28.4868 218.081 28.6762 218.429 28.9262C218.778 29.1724 219.046 29.4755 219.236 29.8353C219.429 30.1952 219.526 30.6061 219.526 31.0683V37.0001H216.912V35.7842H216.844C216.689 36.0796 216.49 36.3296 216.247 36.5342C216.009 36.7387 215.726 36.8921 215.401 36.9944C215.079 37.0967 214.715 37.1478 214.31 37.1478ZM215.168 35.3296C215.467 35.3296 215.736 35.269 215.975 35.1478C216.217 35.0266 216.41 34.8599 216.554 34.6478C216.698 34.4319 216.77 34.1819 216.77 33.8978V33.0683C216.69 33.1099 216.594 33.1478 216.48 33.1819C216.37 33.216 216.249 33.2482 216.117 33.2785C215.984 33.3088 215.848 33.3353 215.707 33.358C215.567 33.3808 215.433 33.4016 215.304 33.4205C215.043 33.4622 214.819 33.5266 214.634 33.6137C214.452 33.7008 214.312 33.8145 214.213 33.9546C214.118 34.091 214.071 34.2539 214.071 34.4433C214.071 34.7311 214.173 34.9508 214.378 35.1024C214.586 35.2539 214.85 35.3296 215.168 35.3296Z" fill="#7A49F6"/>
<path d="M205.443 37V28.2728H208.142V29.8637H208.233C208.392 29.2879 208.652 28.8599 209.012 28.5796C209.371 28.2955 209.79 28.1534 210.267 28.1534C210.396 28.1534 210.529 28.1629 210.665 28.1819C210.801 28.197 210.928 28.2216 211.046 28.2557V30.6705C210.913 30.625 210.739 30.589 210.523 30.5625C210.311 30.536 210.121 30.5228 209.955 30.5228C209.625 30.5228 209.328 30.5966 209.063 30.7444C208.801 30.8883 208.595 31.0909 208.443 31.3523C208.296 31.6099 208.222 31.9129 208.222 32.2614V37H205.443Z" fill="#7A49F6"/>
<path d="M204.026 28.2728V30.3182H198.52V28.2728H204.026ZM199.673 26.1819H202.452V34.2557C202.452 34.4262 202.478 34.5645 202.531 34.6705C202.588 34.7728 202.67 34.8467 202.776 34.8921C202.882 34.9338 203.009 34.9546 203.156 34.9546C203.262 34.9546 203.374 34.9451 203.492 34.9262C203.613 34.9035 203.704 34.8845 203.764 34.8694L204.185 36.8751C204.052 36.9129 203.865 36.9603 203.622 37.0171C203.384 37.0739 203.098 37.1099 202.764 37.1251C202.113 37.1554 201.554 37.0796 201.088 36.8978C200.626 36.7122 200.272 36.4243 200.026 36.0342C199.783 35.644 199.666 35.1535 199.673 34.5626V26.1819Z" fill="#7A49F6"/>
<path d="M191.737 32.0228V37.0001H188.959V28.2728H191.601V29.8751H191.698C191.891 29.341 192.22 28.9224 192.686 28.6194C193.152 28.3126 193.707 28.1592 194.351 28.1592C194.965 28.1592 195.497 28.2974 195.948 28.574C196.402 28.8467 196.754 29.2293 197.004 29.7217C197.258 30.2103 197.383 30.7823 197.379 31.4376V37.0001H194.601V31.983C194.605 31.4982 194.482 31.1194 194.232 30.8467C193.985 30.574 193.643 30.4376 193.203 30.4376C192.912 30.4376 192.654 30.502 192.431 30.6308C192.211 30.7558 192.04 30.9357 191.919 31.1705C191.802 31.4054 191.741 31.6895 191.737 32.0228Z" fill="#7A49F6"/>
<path d="M183.126 37.1649C182.21 37.1649 181.422 36.9774 180.763 36.6024C180.107 36.2236 179.602 35.6971 179.246 35.0228C178.893 34.3448 178.717 33.5588 178.717 32.6649C178.717 31.7671 178.893 30.9811 179.246 30.3069C179.602 29.6289 180.107 29.1024 180.763 28.7274C181.422 28.3486 182.21 28.1592 183.126 28.1592C184.043 28.1592 184.829 28.3486 185.484 28.7274C186.143 29.1024 186.649 29.6289 187.001 30.3069C187.357 30.9811 187.535 31.7671 187.535 32.6649C187.535 33.5588 187.357 34.3448 187.001 35.0228C186.649 35.6971 186.143 36.2236 185.484 36.6024C184.829 36.9774 184.043 37.1649 183.126 37.1649ZM183.143 35.0683C183.477 35.0683 183.759 34.966 183.99 34.7615C184.221 34.5569 184.397 34.2728 184.518 33.9092C184.643 33.5455 184.706 33.1251 184.706 32.6478C184.706 32.163 184.643 31.7387 184.518 31.3751C184.397 31.0115 184.221 30.7274 183.99 30.5228C183.759 30.3183 183.477 30.216 183.143 30.216C182.799 30.216 182.507 30.3183 182.268 30.5228C182.034 30.7274 181.854 31.0115 181.729 31.3751C181.607 31.7387 181.547 32.163 181.547 32.6478C181.547 33.1251 181.607 33.5455 181.729 33.9092C181.854 34.2728 182.034 34.5569 182.268 34.7615C182.507 34.966 182.799 35.0683 183.143 35.0683Z" fill="#7A49F6"/>
<path d="M177.443 29.5796H174.602C174.565 29.2879 174.487 29.0247 174.369 28.7898C174.252 28.555 174.097 28.3542 173.904 28.1875C173.71 28.0209 173.481 27.894 173.216 27.8069C172.955 27.716 172.665 27.6705 172.347 27.6705C171.782 27.6705 171.296 27.8088 170.887 28.0853C170.481 28.3618 170.169 28.7614 169.949 29.2841C169.733 29.8069 169.625 30.4394 169.625 31.1819C169.625 31.9546 169.735 32.6023 169.955 33.125C170.178 33.644 170.491 34.036 170.892 34.3012C171.298 34.5625 171.777 34.6932 172.33 34.6932C172.64 34.6932 172.923 34.6535 173.176 34.5739C173.434 34.4944 173.659 34.3788 173.852 34.2273C174.049 34.072 174.21 33.8845 174.335 33.6648C174.464 33.4413 174.553 33.1894 174.602 32.9091L177.443 32.9262C177.394 33.4413 177.244 33.9489 176.994 34.4489C176.748 34.9489 176.409 35.4053 175.977 35.8182C175.546 36.2273 175.019 36.5531 174.398 36.7955C173.78 37.0379 173.072 37.1591 172.273 37.1591C171.22 37.1591 170.277 36.9281 169.443 36.466C168.614 36 167.959 35.322 167.477 34.4319C166.996 33.5417 166.756 32.4584 166.756 31.1819C166.756 29.9016 167 28.8163 167.489 27.9262C167.977 27.036 168.638 26.3599 169.472 25.8978C170.305 25.4357 171.239 25.2046 172.273 25.2046C172.977 25.2046 173.629 25.3031 174.227 25.5C174.826 25.6932 175.352 25.9773 175.807 26.3523C176.262 26.7235 176.631 27.18 176.915 27.7216C177.199 28.2633 177.375 28.8826 177.443 29.5796Z" fill="#7A49F6"/>
<path d="M181 147C181 160.255 170.255 171 157 171C143.745 171 133 160.255 133 147C133 133.745 143.745 123 157 123C170.255 123 181 133.745 181 147Z" fill="white"/>
<g clip-path="url(#clip1_1287_42)">
<mask id="mask0_1287_42" style="mask-type:alpha" maskUnits="userSpaceOnUse" x="142" y="132" width="30" height="30">
<path d="M142 132H172V162H142V132Z" fill="black"/>
</mask>
<g mask="url(#mask0_1287_42)">
<path fill-rule="evenodd" clip-rule="evenodd" d="M172 132H157V136.608C158.153 136.6 159.326 136.784 160.478 137.181C163.957 138.38 166.592 141.1 167.261 144.933L163.025 144.935C162.26 142.935 160.979 141.602 159.169 140.979C155.805 139.819 152.138 141.607 150.979 144.971C149.819 148.336 151.607 152.002 154.971 153.162C158.215 154.279 162.097 152.435 163.027 148.935L167.262 148.933C167.263 149.266 167.072 150.15 166.959 150.478C165.46 154.83 161.367 157.561 157 157.532V162H172V132Z" fill="#7A49F6"/>
<path d="M163.027 148.935C162.097 152.435 158.215 154.279 154.971 153.162C151.607 152.002 149.82 148.336 150.979 144.971C152.138 141.607 155.805 139.819 159.169 140.979C160.979 141.602 162.26 142.935 163.025 144.935L167.261 144.933C166.592 141.1 163.957 138.38 160.478 137.181C155.016 135.299 149.063 138.201 147.181 143.663C145.299 149.124 148.201 155.077 153.663 156.959C159.124 158.841 165.079 155.934 166.959 150.478C167.072 150.15 167.263 149.266 167.262 148.933L163.027 148.935Z" fill="white"/>
<path fill-rule="evenodd" clip-rule="evenodd" d="M142 132H157V136.608C152.687 136.637 148.666 139.353 147.181 143.663C145.299 149.124 148.201 155.077 153.663 156.959C154.768 157.34 155.893 157.525 157 157.532V162H142V132ZM146.179 139.179C147.835 139.179 149.179 137.835 149.179 136.179C149.179 134.522 147.835 133.179 146.179 133.179C144.522 133.179 143.179 134.522 143.179 136.179C143.179 137.835 144.522 139.179 146.179 139.179Z" fill="black"/>
<path d="M149.179 136.179C149.179 137.835 147.836 139.179 146.179 139.179C144.522 139.179 143.179 137.835 143.179 136.179C143.179 134.522 144.522 133.179 146.179 133.179C147.836 133.179 149.179 134.522 149.179 136.179Z" fill="white"/>
</g>
</g>
<defs>
<filter id="filter0_d_1287_42" x="195" y="173.574" width="37.8237" height="41.191" filterUnits="userSpaceOnUse" color-interpolation-filters="sRGB">
<feFlood flood-opacity="0" result="BackgroundImageFix"/>
<feColorMatrix in="SourceAlpha" type="matrix" values="0 0 0 0 0 0 0 0 0 0 0 0 0 0 0 0 0 0 127 0" result="hardAlpha"/>
<feOffset dy="4"/>
<feGaussianBlur stdDeviation="2"/>
<feComposite in2="hardAlpha" operator="out"/>
<feColorMatrix type="matrix" values="0 0 0 0 0 0 0 0 0 0 0 0 0 0 0 0 0 0 0.25 0"/>
<feBlend mode="normal" in2="BackgroundImageFix" result="effect1_dropShadow_1287_42"/>
<feBlend mode="normal" in="SourceGraphic" in2="effect1_dropShadow_1287_42" result="shape"/>
</filter>
<filter id="filter1_d_1287_42" x="195" y="310.574" width="37.8237" height="41.1909" filterUnits="userSpaceOnUse" color-interpolation-filters="sRGB">
<feFlood flood-opacity="0" result="BackgroundImageFix"/>
<feColorMatrix in="SourceAlpha" type="matrix" values="0 0 0 0 0 0 0 0 0 0 0 0 0 0 0 0 0 0 127 0" result="hardAlpha"/>
<feOffset dy="4"/>
<feGaussianBlur stdDeviation="2"/>
<feComposite in2="hardAlpha" operator="out"/>
<feColorMatrix type="matrix" values="0 0 0 0 0 0 0 0 0 0 0 0 0 0 0 0 0 0 0.25 0"/>
<feBlend mode="normal" in2="BackgroundImageFix" result="effect1_dropShadow_1287_42"/>
<feBlend mode="normal" in="SourceGraphic" in2="effect1_dropShadow_1287_42" result="shape"/>
</filter>
<filter id="filter2_d_1287_42" x="296" y="241.574" width="37.8237" height="41.1909" filterUnits="userSpaceOnUse" color-interpolation-filters="sRGB">
<feFlood flood-opacity="0" result="BackgroundImageFix"/>
<feColorMatrix in="SourceAlpha" type="matrix" values="0 0 0 0 0 0 0 0 0 0 0 0 0 0 0 0 0 0 127 0" result="hardAlpha"/>
<feOffset dy="4"/>
<feGaussianBlur stdDeviation="2"/>
<feComposite in2="hardAlpha" operator="out"/>
<feColorMatrix type="matrix" values="0 0 0 0 0 0 0 0 0 0 0 0 0 0 0 0 0 0 0.25 0"/>
<feBlend mode="normal" in2="BackgroundImageFix" result="effect1_dropShadow_1287_42"/>
<feBlend mode="normal" in="SourceGraphic" in2="effect1_dropShadow_1287_42" result="shape"/>
</filter>
<filter id="filter3_d_1287_42" x="242.176" y="274.574" width="37.8237" height="41.1912" filterUnits="userSpaceOnUse" color-interpolation-filters="sRGB">
<feFlood flood-opacity="0" result="BackgroundImageFix"/>
<feColorMatrix in="SourceAlpha" type="matrix" values="0 0 0 0 0 0 0 0 0 0 0 0 0 0 0 0 0 0 127 0" result="hardAlpha"/>
<feOffset dy="4"/>
<feGaussianBlur stdDeviation="2"/>
<feComposite in2="hardAlpha" operator="out"/>
<feColorMatrix type="matrix" values="0 0 0 0 0 0 0 0 0 0 0 0 0 0 0 0 0 0 0.25 0"/>
<feBlend mode="normal" in2="BackgroundImageFix" result="effect1_dropShadow_1287_42"/>
<feBlend mode="normal" in="SourceGraphic" in2="effect1_dropShadow_1287_42" result="shape"/>
</filter>
<filter id="filter4_d_1287_42" x="293" y="376.574" width="37.8237" height="41.1912" filterUnits="userSpaceOnUse" color-interpolation-filters="sRGB">
<feFlood flood-opacity="0" result="BackgroundImageFix"/>
<feColorMatrix in="SourceAlpha" type="matrix" values="0 0 0 0 0 0 0 0 0 0 0 0 0 0 0 0 0 0 127 0" result="hardAlpha"/>
<feOffset dy="4"/>
<feGaussianBlur stdDeviation="2"/>
<feComposite in2="hardAlpha" operator="out"/>
<feColorMatrix type="matrix" values="0 0 0 0 0 0 0 0 0 0 0 0 0 0 0 0 0 0 0.25 0"/>
<feBlend mode="normal" in2="BackgroundImageFix" result="effect1_dropShadow_1287_42"/>
<feBlend mode="normal" in="SourceGraphic" in2="effect1_dropShadow_1287_42" result="shape"/>
</filter>
<filter id="filter5_d_1287_42" x="243" y="206.574" width="37.8237" height="41.1912" filterUnits="userSpaceOnUse" color-interpolation-filters="sRGB">
<feFlood flood-opacity="0" result="BackgroundImageFix"/>
<feColorMatrix in="SourceAlpha" type="matrix" values="0 0 0 0 0 0 0 0 0 0 0 0 0 0 0 0 0 0 127 0" result="hardAlpha"/>
<feOffset dy="4"/>
<feGaussianBlur stdDeviation="2"/>
<feComposite in2="hardAlpha" operator="out"/>
<feColorMatrix type="matrix" values="0 0 0 0 0 0 0 0 0 0 0 0 0 0 0 0 0 0 0.25 0"/>
<feBlend mode="normal" in2="BackgroundImageFix" result="effect1_dropShadow_1287_42"/>
<feBlend mode="normal" in="SourceGraphic" in2="effect1_dropShadow_1287_42" result="shape"/>
</filter>
<filter id="filter6_d_1287_42" x="245" y="344.574" width="37.8237" height="41.1912" filterUnits="userSpaceOnUse" color-interpolation-filters="sRGB">
<feFlood flood-opacity="0" result="BackgroundImageFix"/>
<feColorMatrix in="SourceAlpha" type="matrix" values="0 0 0 0 0 0 0 0 0 0 0 0 0 0 0 0 0 0 127 0" result="hardAlpha"/>
<feOffset dy="4"/>
<feGaussianBlur stdDeviation="2"/>
<feComposite in2="hardAlpha" operator="out"/>
<feColorMatrix type="matrix" values="0 0 0 0 0 0 0 0 0 0 0 0 0 0 0 0 0 0 0.25 0"/>
<feBlend mode="normal" in2="BackgroundImageFix" result="effect1_dropShadow_1287_42"/>
<feBlend mode="normal" in="SourceGraphic" in2="effect1_dropShadow_1287_42" result="shape"/>
</filter>
<linearGradient id="paint0_linear_1287_42" x1="214" y1="218.574" x2="213.545" y2="165.574" gradientUnits="userSpaceOnUse">
<stop stop-color="#75FB7A"/>
<stop offset="1" stop-color="white" stop-opacity="0.28"/>
</linearGradient>
<linearGradient id="paint1_linear_1287_42" x1="263.545" y1="252.574" x2="263.545" y2="199.574" gradientUnits="userSpaceOnUse">
<stop stop-color="#75FB7A"/>
<stop offset="1" stop-color="white" stop-opacity="0.4"/>
</linearGradient>
<linearGradient id="paint2_linear_1287_42" x1="313.545" y1="286.574" x2="313.545" y2="233.574" gradientUnits="userSpaceOnUse">
<stop stop-color="#75FB7A"/>
<stop offset="1" stop-color="white" stop-opacity="0.4"/>
</linearGradient>
<linearGradient id="paint3_linear_1287_42" x1="263.545" y1="320.574" x2="263.545" y2="267.574" gradientUnits="userSpaceOnUse">
<stop stop-color="#75FB7A"/>
<stop offset="1" stop-color="white" stop-opacity="0.4"/>
</linearGradient>
<linearGradient id="paint4_linear_1287_42" x1="213.545" y1="354.574" x2="213.545" y2="301.574" gradientUnits="userSpaceOnUse">
<stop stop-color="#75FB7A"/>
<stop offset="1" stop-color="white" stop-opacity="0.4"/>
</linearGradient>
<linearGradient id="paint5_linear_1287_42" x1="263.545" y1="388.574" x2="263.545" y2="335.574" gradientUnits="userSpaceOnUse">
<stop stop-color="#75FB7A"/>
<stop offset="1" stop-color="white" stop-opacity="0.4"/>
</linearGradient>
<linearGradient id="paint6_linear_1287_42" x1="313.545" y1="422.574" x2="313.545" y2="369.574" gradientUnits="userSpaceOnUse">
<stop stop-color="#75FB7A"/>
<stop offset="1" stop-color="white" stop-opacity="0.4"/>
</linearGradient>
<clipPath id="clip0_1287_42">
<rect width="30.9066" height="30" fill="white" transform="translate(97 309.574)"/>
</clipPath>
<clipPath id="clip1_1287_42">
<rect width="30" height="30" fill="white" transform="translate(142 132)"/>
</clipPath>
</defs>
</svg>
